<?xml version="1.0" standalone="no"?>
<!DOCTYPE svg PUBLIC "-//W3C//DTD SVG 1.1//EN"
  "http://www.w3.org/Graphics/SVG/1.1/DTD/svg11.dtd">
<svg width="70mm" height="92mm" viewBox="-4 -55 70 92" xmlns="http://www.w3.org/2000/svg" version="1.1">
	<title>svgOutput</title>
	<desc>made with tinkercad</desc>
<path d="M 5 24 L 5 1.1102230246251565e-16 L 16.847999572753906 1.1102230246251565e-16 L 23.00200080871582 1.1102230246251565e-16 L 25 1.1102230246251565e-16 L 25 15.07800006866455 L 25 24 L 16.847999572753906 24 L 5 24 M 30 -20 L 35 -20 L 54 -20 L 60 -20 L 60 1.1102230246251565e-16 L 35 1.1102230246251565e-16 L 30 1.1102230246251565e-16 L 30 -8 L 30 -20 M 65 36 L 35 36 L 35 24 L 35 16 L 60 16 L 65 16 L 65 36 M 54 -24 L 35 -24 L 30 -24 L 24 -24 L 24 -32 L 24 -54 L 31.49799919128418 -54 L 35 -54 L 46.50299835205078 -54 L 54 -54 L 54 -31.49799919128418 L 54 -24 M -3 -8 L -3 -32 L 8.847000122070312 -32 L 15.003000259399414 -32 L 17 -32 L 17 -16.92300033569336 L 17 -8 L 8.847000122070312 -8 L -3 -8 M 36.68199920654297 -46.1349983215332 L 35 -45.278724670410156 L 34.59000015258789 -45.06999969482422 L 32.93000030517578 -43.40999984741211 L 32.768001556396484 -43.09178161621094 L 31.864999771118164 -41.31800079345703 L 31.49799919128418 -39 L 31.864999771118164 -36.68199920654297 L 32.768001556396484 -34.90821838378906 L 32.93000030517578 -34.59000015258789 L 34.59000015258789 -32.93000030517578 L 34.90821838378906 -32.768001556396484 L 35 -32.721275329589844 L 36.68199920654297 -31.864999771118164 L 39 -31.49799919128418 L 41.31800079345703 -31.864999771118164 L 43.09178161621094 -32.768001556396484 L 43.40999984741211 -32.93000030517578 L 45.06999969482422 -34.59000015258789 L 46.1349983215332 -36.68199920654297 L 46.50299835205078 -39 L 46.1349983215332 -41.31800079345703 L 45.06999969482422 -43.40999984741211 L 43.40999984741211 -45.06999969482422 L 41.31800079345703 -46.1349983215332 L 39 -46.50299835205078 L 36.68199920654297 -46.1349983215332 M 10.973999977111816 -17.072999954223633 L 11.925000190734863 -16.92300033569336 L 12.288000106811523 -16.980255126953125 L 12.87600040435791 -17.072999954223633 L 13.734000205993652 -17.510000228881836 L 14.414999961853027 -18.19099998474121 L 14.85200023651123 -19.048999786376953 L 15.003000259399414 -20 L 14.85200023651123 -20.951000213623047 L 14.414999961853027 -21.80900001525879 L 13.734000205993652 -22.489999771118164 L 12.87600040435791 -22.927000045776367 L 12.288000106811523 -23.020362854003906 L 11.925000190734863 -23.077999114990234 L 10.973999977111816 -22.927000045776367 L 10.116000175476074 -22.489999771118164 L 9.4350004196167 -21.80900001525879 L 8.998000144958496 -20.951000213623047 L 8.847000122070312 -20 L 8.998000144958496 -19.048999786376953 L 9.4350004196167 -18.19099998474121 L 10.116000175476074 -17.510000228881836 L 10.973999977111816 -17.072999954223633 M 18.974000930786133 14.927000045776367 L 19.924999237060547 15.07800006866455 L 20.875999450683594 14.927000045776367 L 21.733999252319336 14.489999771118164 L 22.415000915527344 13.809000015258789 L 22.851999282836914 12.951000213623047 L 22.956573486328125 12.288000106811523 L 23.00200080871582 12 L 22.851999282836914 11.048999786376953 L 22.415000915527344 10.190999984741211 L 21.733999252319336 9.510000228881836 L 20.875999450683594 9.072999954223633 L 19.924999237060547 8.92300033569336 L 18.974000930786133 9.072999954223633 L 18.115999221801758 9.510000228881836 L 17.434999465942383 10.190999984741211 L 16.99799919128418 11.048999786376953 L 16.847999572753906 12 L 16.89342498779297 12.288000106811523 L 16.99799919128418 12.951000213623047 L 17.434999465942383 13.809000015258789 L 18.115999221801758 14.489999771118164 L 18.974000930786133 14.927000045776367 z" fill="none" stroke="rgb(255,0,0)" stroke-width="0.001mm" />
</svg>