<?xml version="1.0" standalone="no"?>
<!DOCTYPE svg PUBLIC "-//W3C//DTD SVG 1.1//EN"
  "http://www.w3.org/Graphics/SVG/1.1/DTD/svg11.dtd">
<svg width="52mm" height="72mm" viewBox="3 -55 52 72" xmlns="http://www.w3.org/2000/svg" version="1.1">
	<title>svgOutput</title>
	<desc>made with tinkercad</desc>
<path d="M 54 16 L 24 16 L 15.847000122070312 16 L 4 16 L 4 -8 L 4 -32 L 15.847000122070312 -32 L 22.00200080871582 -32 L 24 -32 L 24 -54 L 31.49799919128418 -54 L 46.50299835205078 -54 L 54 -54 L 54 -31.49799919128418 L 54 -24 L 54 -4 L 54 16 M 15.998000144958496 -20.951000213623047 L 15.92321491241455 -20.479999542236328 L 15.847000122070312 -20 L 15.998000144958496 -19.048999786376953 L 16.434999465942383 -18.19099998474121 L 17.115999221801758 -17.510000228881836 L 17.974000930786133 -17.072999954223633 L 18.924999237060547 -16.92300033569336 L 19.875999450683594 -17.072999954223633 L 20.733999252319336 -17.510000228881836 L 21.415000915527344 -18.19099998474121 L 21.851999282836914 -19.048999786376953 L 22.00200080871582 -20 L 21.92629051208496 -20.479999542236328 L 21.851999282836914 -20.951000213623047 L 21.415000915527344 -21.80900001525879 L 20.733999252319336 -22.489999771118164 L 19.875999450683594 -22.927000045776367 L 18.924999237060547 -23.077999114990234 L 17.974000930786133 -22.927000045776367 L 17.115999221801758 -22.489999771118164 L 16.434999465942383 -21.80900001525879 L 15.998000144958496 -20.951000213623047 M 36.68199920654297 -31.864999771118164 L 39 -31.49799919128418 L 41.31800079345703 -31.864999771118164 L 43.09178161621094 -32.768001556396484 L 43.40999984741211 -32.93000030517578 L 45.06999969482422 -34.59000015258789 L 46.1349983215332 -36.68199920654297 L 46.50299835205078 -39 L 46.1349983215332 -41.31800079345703 L 45.06999969482422 -43.40999984741211 L 43.40999984741211 -45.06999969482422 L 41.31800079345703 -46.1349983215332 L 39 -46.50299835205078 L 36.68199920654297 -46.1349983215332 L 34.59000015258789 -45.06999969482422 L 32.93000030517578 -43.40999984741211 L 32.768001556396484 -43.09178161621094 L 31.864999771118164 -41.31800079345703 L 31.49799919128418 -39 L 31.864999771118164 -36.68199920654297 L 32.768001556396484 -34.90821838378906 L 32.93000030517578 -34.59000015258789 L 34.59000015258789 -32.93000030517578 L 34.90821838378906 -32.768001556396484 L 36.68199920654297 -31.864999771118164 M 15.998000144958496 3.0490000247955322 L 15.847000122070312 4 L 15.862242698669434 4.0960001945495605 L 15.998000144958496 4.951000213623047 L 16.434999465942383 5.809000015258789 L 17.115999221801758 6.489999771118164 L 17.974000930786133 6.927000045776367 L 18.924999237060547 7.078000068664551 L 19.875999450683594 6.927000045776367 L 20.733999252319336 6.489999771118164 L 21.415000915527344 5.809000015258789 L 21.851999282836914 4.951000213623047 L 21.986858367919922 4.0960001945495605 L 22.00200080871582 4 L 21.851999282836914 3.0490000247955322 L 21.415000915527344 2.190999984741211 L 20.733999252319336 1.5099999904632568 L 19.875999450683594 1.0729999542236328 L 18.924999237060547 0.9219999909400941 L 17.974000930786133 1.0729999542236328 L 17.115999221801758 1.5099999904632568 L 16.434999465942383 2.190999984741211 L 15.998000144958496 3.0490000247955322 z" fill="none" stroke="rgb(255,0,0)" stroke-width="0.001mm" />
</svg>